<svg width="651" height="334" xmlns="http://www.w3.org/2000/svg" xmlns:xlink="http://www.w3.org/1999/xlink" xml:space="preserve" overflow="hidden"><defs><clipPath id="clip0"><rect x="116" y="193" width="651" height="334"/></clipPath></defs><g clip-path="url(#clip0)" transform="translate(-116 -193)"><path d="M172.868 434.75C171.148 434.75 170.718 433.89 171.578 432.6L180.608 420.989C181.468 419.699 183.618 418.839 185.339 418.839L338.856 418.839C340.576 418.839 341.006 420.129 340.146 421.419L332.835 432.6C331.975 433.89 329.825 435.18 328.535 435.18L172.868 434.75Z" fill="#5DC9E1" transform="matrix(1 0 0 1.00105 -224.095 -139.47)"/><path d="M107.935 474.312C106.215 474.312 105.785 473.452 106.645 472.162L115.675 460.551C116.535 459.261 118.685 458.401 120.406 458.401L316.495 458.401C318.215 458.401 319.075 459.691 318.645 460.981L315.204 471.302C314.774 473.022 313.054 473.882 311.334 473.882L107.935 474.312Z" fill="#5DC9E1" transform="matrix(1 0 0 1.00105 -224.095 -139.47)"/><path d="M212 513.874C210.28 513.874 209.85 512.584 210.71 511.293L216.73 500.543C217.59 499.253 219.31 497.963 221.03 497.963L307.034 497.963C308.754 497.963 309.614 499.253 309.614 500.973L308.754 511.293C308.754 513.014 307.034 514.304 305.744 514.304L212 513.874Z" fill="#5DC9E1" transform="matrix(1 0 0 1.00105 -224.095 -139.47)"/><path d="M658.36 427.01C631.269 433.89 612.778 439.05 586.117 445.93 579.667 447.651 579.237 448.081 573.646 441.63 567.196 434.32 562.466 429.59 553.435 425.29 526.344 411.959 500.113 415.829 475.602 431.74 446.361 450.661 431.31 478.612 431.74 513.444 432.17 547.845 455.821 576.227 489.793 580.957 519.034 584.827 543.545 574.506 562.896 552.575 566.766 547.845 570.206 542.685 574.506 536.665 559.026 536.665 539.675 536.665 491.513 536.665 482.482 536.665 480.332 531.074 483.342 523.764 488.932 510.433 499.253 488.072 505.273 476.892 506.563 474.312 509.573 470.012 516.024 470.012 537.955 470.012 618.798 470.012 672.551 470.012 671.691 481.622 671.691 493.233 669.971 504.843 665.241 535.805 653.63 564.186 634.709 589.127 603.748 629.979 563.326 655.35 512.154 662.23 470.012 667.821 430.88 659.65 396.478 633.849 364.657 609.768 346.596 577.947 341.866 538.385 336.275 491.513 350.036 449.371 378.417 412.389 408.949 372.397 449.371 347.026 498.823 337.996 539.245 330.685 577.947 335.415 612.778 359.066 635.569 374.117 651.91 394.758 662.66 419.699 665.241 423.569 663.521 425.72 658.36 427.01Z" fill="#5DC9E1" transform="matrix(1 0 0 1.00105 -224.095 -139.47)"/><path d="M800.697 664.811C761.565 663.951 725.873 652.77 695.772 626.969 670.401 605.038 654.49 577.086 649.33 543.975 641.589 495.383 654.92 452.381 684.161 414.109 715.553 372.827 753.395 351.326 804.567 342.296 848.429 334.555 889.711 338.856 927.123 364.227 961.094 387.448 982.165 418.839 987.755 460.121 995.066 518.174 978.295 565.476 938.303 605.898 909.922 634.709 875.09 652.77 835.098 660.94 823.488 663.09 811.877 663.521 800.697 664.811ZM903.042 491.083C902.611 485.492 902.611 481.192 901.751 476.892 894.011 434.32 854.879 410.239 814.027 419.699 774.036 428.73 748.234 454.101 738.774 494.523 731.034 528.064 747.374 562.036 778.336 575.796 801.987 586.117 825.638 584.827 848.429 573.216 882.401 555.586 900.891 528.064 903.042 491.083Z" fill="#5DC9E1" transform="matrix(1 0 0 1.00105 -224.095 -139.47)"/></g></svg>