<svg width="308" height="338" xmlns="http://www.w3.org/2000/svg" xmlns:xlink="http://www.w3.org/1999/xlink" xml:space="preserve" overflow="hidden"><defs><clipPath id="clip0"><rect x="293" y="191" width="308" height="338"/></clipPath></defs><g clip-path="url(#clip0)" transform="translate(-293 -191)"><path d="M321.265 289.832C318.856 287.134 317.748 282.148 316.52 276.825 315.315 271.526 313.942 265.818 309.583 262.133L309.583 262.108C307.992 260.73 306.175 259.638 304.212 258.881 310.281 240.937 307.897 223.064 301.803 206.926 294.288 187.103 281.209 169.833 271.213 158.031 260.037 143.916 249.102 130.524 249.295 110.749 249.632 80.545 252.618 24.5441 199.484 24.4718 197.316 24.4718 195.076 24.5682 192.74 24.7608 133.342 29.53 149.095 92.2751 148.204 113.278 147.12 128.646 144.013 140.737 133.439 155.767 121.034 170.532 103.572 194.402 95.2859 219.283 91.3839 231.013 89.5052 242.984 91.2394 254.304 90.6854 254.786 90.1796 255.292 89.6978 255.822 86.0608 259.7 83.3631 264.421 80.3523 267.6 77.5583 270.394 73.5599 271.454 69.1762 273.02 64.7684 274.609 59.9511 276.922 57.0367 282.534L57.0367 282.558C55.7436 285.081 55.1059 287.889 55.182 290.723 55.182 293.324 55.5674 295.95 55.9528 298.479 56.7717 303.778 57.5906 308.764 56.5068 312.136 53.0383 321.65 52.5807 328.202 55.0375 332.971 57.4943 337.764 62.5043 339.859 68.2128 341.04 79.6056 343.448 95.045 342.846 107.209 349.277L108.244 347.302 107.209 349.277C120.215 356.094 133.439 358.502 143.965 356.118 151.429 354.652 157.747 349.713 160.97 342.822 169.207 342.774 178.24 339.305 192.715 338.487 202.543 337.716 214.827 341.979 228.917 341.208 229.283 342.739 229.833 344.219 230.555 345.616L230.579 345.64C236.047 356.6 246.236 361.585 257.074 360.742 267.913 359.875 279.427 353.492 288.748 342.389L287.062 340.943 288.748 342.389C297.66 331.598 312.401 327.142 322.18 321.241 327.07 318.278 331.044 314.593 331.333 309.222 331.646 303.874 328.491 297.877 321.265 289.832Z" fill="#202020" transform="matrix(1.00319 0 0 1 253.786 168.359)"/><path d="M326.877 308.981C326.708 312.281 324.3 314.761 319.892 317.411 311.028 322.758 295.348 327.383 285.352 339.522 276.633 349.879 266.035 355.54 256.689 356.286 247.368 357.009 239.323 353.155 234.554 343.617L234.554 343.569C231.591 337.957 232.819 329.117 235.3 319.795 237.781 310.474 241.346 300.888 241.828 293.108L241.828 293.084C242.309 283.088 242.888 274.393 244.574 267.672 246.26 260.928 248.885 256.4 253.558 253.823 253.773 253.707 253.989 253.594 254.208 253.486 254.738 262.133 259.025 270.948 266.589 272.851 274.85 275.019 286.773 267.937 291.807 262.133L294.746 262.036C299.177 261.916 302.863 262.181 306.668 265.481L306.668 265.505C309.583 267.961 310.98 272.634 312.184 277.837 313.388 283.064 314.352 288.748 317.941 292.795 324.854 300.502 327.094 305.657 326.877 308.981ZM158.778 333.428 158.778 333.501C157.959 343.978 152.034 349.687 142.977 351.758 133.896 353.83 121.588 351.758 109.304 345.351 95.6954 338.125 79.5093 338.848 69.1521 336.68 63.9495 335.596 60.5533 333.958 59.0117 330.947 57.4702 327.913 57.422 322.638 60.7219 313.605L60.7219 313.581 60.746 313.533C62.3838 308.499 61.1795 302.983 60.3847 297.805 59.5898 292.65 59.2044 287.929 60.9627 284.653L60.9868 284.629C63.251 280.27 66.5749 278.704 70.6937 277.235 74.7884 275.741 79.6779 274.585 83.5317 270.731L83.5558 270.707 83.5799 270.707C87.1447 266.926 89.8424 262.205 92.9736 258.857 95.6231 256.039 98.2726 254.16 102.247 254.136L102.367 254.136C103.118 254.143 103.867 254.207 104.607 254.329 109.906 255.123 114.507 258.833 118.963 264.854L131.801 288.242 131.801 288.266C135.221 295.396 142.423 303.248 148.541 311.245 154.659 319.266 159.38 327.286 158.778 333.428Z" fill="#F8BF11" transform="matrix(1.00319 0 0 1 253.786 168.359)"/><path d="M222.799 115.326C221.764 113.303 219.668 111.376 216.055 109.906 208.588 106.703 205.361 106.486 201.194 103.788 194.45 99.4288 188.838 97.9113 184.189 97.9113 181.957 97.9221 179.743 98.3047 177.637 99.0434 171.953 100.97 168.196 105.065 165.835 107.281 165.353 107.739 164.775 108.124 163.33 109.208 161.885 110.244 159.717 111.857 156.586 114.218 153.768 116.289 152.877 119.035 153.84 122.215 154.803 125.394 157.862 129.079 163.475 132.259L163.499 132.259C166.991 134.306 169.376 137.076 172.122 139.268 173.501 140.414 175.033 141.363 176.674 142.086 178.408 142.833 180.431 143.338 182.936 143.483 188.91 143.844 193.294 142.038 197.147 139.846 201.001 137.63 204.277 134.932 208.034 133.704L208.059 133.704C215.766 131.295 221.258 126.454 222.992 121.829 223.878 119.737 223.807 117.362 222.799 115.326Z" fill="#D6A312" transform="matrix(1.00319 0 0 1 253.786 168.359)"/><path d="M203.241 126.695C197.099 129.898 189.946 133.776 182.31 133.776 174.699 133.776 168.677 130.259 164.366 126.815 162.198 125.129 160.44 123.395 159.115 122.166 156.803 120.36 157.092 117.807 158.031 117.879 159.621 118.072 159.862 120.167 160.849 121.107 162.198 122.359 163.884 123.997 165.931 125.611 170.026 128.862 175.494 132.018 182.31 132.018 189.151 132.018 197.099 128.019 201.965 125.274 204.735 123.732 208.227 120.962 211.093 118.867 213.261 117.253 213.189 115.326 214.995 115.543 216.802 115.759 215.477 117.686 212.948 119.878 210.419 122.094 206.445 125.033 203.241 126.695Z" fill="#202020" transform="matrix(1.00319 0 0 1 253.786 168.359)"/><path d="M297.154 257.58C296.319 257.555 295.484 257.555 294.649 257.58L294.408 257.58C296.528 250.908 291.855 246.019 279.451 240.407 266.589 234.746 256.328 235.3 254.594 246.79 254.473 247.392 254.377 247.994 254.329 248.62 253.331 248.974 252.364 249.409 251.438 249.921 245.368 253.221 242.069 259.218 240.238 266.589 238.407 273.935 237.878 282.823 237.372 292.843 237.059 297.853 234.987 304.645 232.892 311.871 211.816 326.901 182.551 333.404 157.694 316.447 156.008 313.798 154.081 311.148 152.082 308.547 150.813 306.889 149.528 305.243 148.228 303.609 150.441 303.669 152.641 303.258 154.683 302.405 156.745 301.54 158.364 299.869 159.163 297.78 160.681 293.686 159.163 287.953 154.298 281.402 149.456 274.826 141.243 267.432 129.176 260.013 120.312 254.473 115.35 247.729 113.038 240.407 110.701 233.06 111.014 225.112 112.797 217.284 116.241 202.23 125.081 187.585 130.693 178.408 132.21 177.3 131.247 180.48 125.009 192.065 119.421 202.663 108.943 227.111 123.274 246.211 123.66 232.627 126.887 218.753 132.355 205.819 140.279 187.826 156.875 156.658 158.176 131.801 158.874 132.283 161.186 133.872 162.246 134.45 165.281 136.257 167.569 138.882 170.532 141.267 174.395 144.528 179.329 146.243 184.382 146.084 190.162 146.084 194.666 144.181 198.4 142.038 202.495 139.725 205.722 137.124 208.829 136.136 215.333 134.089 220.535 130.476 223.474 126.261 228.532 146.253 240.334 175.084 247.897 189.151 251.92 196.617 259.941 212.49 263.385 231.591 265.577 231.543 267.986 231.832 270.587 232.506 279.619 209.07 262.903 183.804 255.268 176.77 252.185 173.784 252.016 172.435 253.582 172.507 261.844 179.829 272.731 194.594 276.705 211.238 278.511 218.825 278.873 226.798 276.946 234.674 277.909 235.084 278.873 235.493 279.836 235.975 294.36 243.032 299.731 249.174 297.154 257.58Z" fill="#FFFFFF" transform="matrix(1.00319 0 0 1 253.786 168.359)"/><path d="M193.655 194.185C180.263 194.233 167.184 200.23 156.128 211.431 145.048 222.607 136.522 238.456 131.608 256.906L133.077 257.821 133.077 257.917C144.398 265.095 152.467 272.321 157.453 279.065 162.728 286.195 165.064 293.132 162.824 299.153 161.642 302.195 159.304 304.646 156.321 305.97L155.333 306.331C157.116 308.668 158.85 311.076 160.464 313.557 183.201 328.683 209.648 323.095 229.52 309.414 231.446 302.718 233.205 296.504 233.446 292.602 233.951 282.606 234.457 273.525 236.432 265.625 238.407 257.677 242.261 250.451 249.535 246.476 249.945 246.236 250.354 246.115 250.764 245.922 250.892 245.157 251.069 244.401 251.294 243.658 245.465 228.677 237.059 216.2 226.966 207.529 216.85 198.858 205.361 194.257 193.679 194.185ZM250.74 246.091 250.692 246.211 250.692 246.163 250.716 246.067Z" fill="#E6E6E6" transform="matrix(1.00319 0 0 1 253.786 168.359)"/><path d="M223.474 92.3233C223.578 98.0233 221.753 103.591 218.295 108.124 216.566 107.351 214.815 106.629 213.044 105.956L209.985 104.872C210.684 104.029 212.033 103.066 212.563 101.813 213.326 99.9545 213.734 97.9693 213.767 95.9603L213.791 95.7195C213.851 93.7896 213.565 91.8645 212.948 90.0351 212.463 88.3643 211.569 86.841 210.347 85.6032 209.368 84.5642 208.016 83.9576 206.589 83.9171L206.421 83.9171C205.072 83.9358 203.777 84.4503 202.784 85.3623 201.469 86.501 200.459 87.9498 199.845 89.5774 199.086 91.4374 198.678 93.4218 198.641 95.4304L198.641 95.6713C198.603 96.7997 198.675 97.9291 198.858 99.0434 196.125 97.7822 193.267 96.8133 190.331 96.153 190.191 95.0905 190.111 94.021 190.09 92.9495L190.09 92.6364C189.988 88.9346 190.712 85.2567 192.21 81.8698 193.485 78.7513 195.562 76.0257 198.231 73.9694 200.592 72.0631 203.531 71.0182 206.565 71.0068L206.71 71.0068C209.721 71.0068 212.298 71.8739 214.947 73.8008 217.675 75.7978 219.814 78.4939 221.137 81.6048 222.655 84.9287 223.402 88.1804 223.474 92.0342L223.498 92.3233ZM177.951 96.2734C175.592 96.9482 173.345 97.9624 171.279 99.2842 171.44 98.0863 171.456 96.8731 171.327 95.6713L171.327 95.4786C171.179 93.8871 170.789 92.3276 170.171 90.854 169.675 89.5573 168.883 88.3943 167.858 87.4578 167.097 86.7108 166.057 86.3176 164.992 86.3739 163.98 86.4703 163.137 86.952 162.342 87.9395 161.496 89.0441 160.919 90.3306 160.656 91.697 160.281 93.3145 160.175 94.9828 160.343 96.6347L160.343 96.8274C160.482 98.4282 160.872 99.997 161.499 101.476 162.076 102.957 163.041 104.255 164.294 105.234L161.837 107.161 159.958 108.509C158.289 106.868 156.977 104.9 156.104 102.729 154.828 99.8382 154.129 96.9479 153.936 93.5517L153.936 93.5276C153.716 90.3563 154.083 87.1716 155.02 84.1339 155.739 81.4847 157.124 79.0636 159.043 77.1006 160.67 75.3037 162.977 74.2725 165.401 74.2584 167.425 74.2584 169.207 74.9329 171.062 76.4262 173.181 78.1665 174.829 80.4109 175.855 82.9537 177.132 85.844 177.782 88.7344 177.999 92.1547L177.999 92.1787C178.071 93.6239 178.071 94.9487 177.951 96.2734Z" fill="#FFFFFF" transform="matrix(1.00319 0 0 1 253.786 168.359)"/><path d="M188.019 104.415C188.26 105.234 189.584 105.113 190.355 105.499 191.005 105.836 191.559 106.582 192.282 106.607 193.005 106.631 194.113 106.366 194.209 105.643 194.329 104.728 192.956 104.126 192.089 103.788 190.957 103.331 189.512 103.114 188.452 103.716 188.211 103.837 187.946 104.15 188.019 104.439ZM180.263 104.415C180.022 105.234 178.697 105.113 177.951 105.499 177.276 105.836 176.746 106.582 176 106.607 175.277 106.631 174.169 106.366 174.073 105.643 173.952 104.728 175.325 104.126 176.192 103.788 177.324 103.331 178.794 103.114 179.853 103.716 180.094 103.837 180.335 104.15 180.263 104.439Z" fill="#202020" transform="matrix(1.00319 0 0 1 253.786 168.359)"/></g></svg>