<svg width="306" height="303" xmlns="http://www.w3.org/2000/svg" xmlns:xlink="http://www.w3.org/1999/xlink" xml:space="preserve" overflow="hidden"><defs><clipPath id="clip0"><rect x="289" y="198" width="306" height="303"/></clipPath></defs><g clip-path="url(#clip0)" transform="translate(-289 -198)"><path d="M51.0115 51.0115 357.08 51.0115 357.08 357.08 51.0115 357.08Z" fill="#1976D2" transform="matrix(1.0005 0 0 1 237.653 144.03)"/><path d="M233.718 187.042 120.957 187.042 120.957 214.792 161.4 214.792 161.4 340.076 193.444 340.076 193.444 214.792 233.718 214.792Z" fill="#FFFFFF" transform="matrix(1.0005 0 0 1 237.653 144.03)"/><path d="M333.224 221.764C333.224 221.764 318.031 211.63 300.857 211.63 283.683 211.63 277.502 219.791 277.502 228.514 277.502 251.027 340.255 248.774 340.255 294.081 340.255 363.873 244.575 332.918 244.575 332.918L244.575 299.437C244.575 299.437 262.871 313.227 284.814 313.227 306.758 313.227 305.924 298.876 305.924 296.904 305.924 276.083 243.733 276.083 243.733 229.926 243.733 167.173 334.346 191.931 334.346 191.931L333.224 221.764Z" fill="#FFFFFF" transform="matrix(1.0005 0 0 1 237.653 144.03)"/></g></svg>